ffmpeg started on 2016-11-26 at 08:53:42
Report written to "Output/NVENCh264/results/ffmpeg/old_town_cross_2160p50ll1500k.log"
Command line:
Tools/ffmpeg/ffmpeg -benchmark -y -i Input/y4m/old_town_cross_2160p50.y4m -c:v h264_nvenc -preset ll -b:v 1500k -an Output/NVENCh264/encoded/old_town_cross_2160p50ll1500k.mkv
ffmpeg version N-82227-gdb23fde Copyright (c) 2000-2016 the FFmpeg developers
  built with gcc 5.4.0 (Ubuntu 5.4.0-6ubuntu1~16.04.2) 20160609
  configuration: --prefix=/home/jaroslav/ffmpeg_build --pkg-config-flags=--static --extra-cflags=-I/home/jaroslav/ffmpeg_build/include --extra-ldflags=-L/home/jaroslav/ffmpeg_build/lib --bindir=/home/jaroslav/bin --enable-gpl --enable-libass --enable-libfdk-aac --enable-libfreetype --enable-libmp3lame --enable-libopus --enable-libtheora --enable-libvorbis --enable-libvpx --enable-libx264 --enable-libx265 --enable-nvenc --enable-libmfx --enable-libxvid --enable-libgsm --enable-libopencore-amrnb --enable-version3 --enable-nonfree
  libavutil      55. 35.100 / 55. 35.100
  libavcodec     57. 66.101 / 57. 66.101
  libavformat    57. 57.100 / 57. 57.100
  libavdevice    57.  2.100 / 57.  2.100
  libavfilter     6. 66.100 /  6. 66.100
  libswscale      4.  3.100 /  4.  3.100
  libswresample   2.  4.100 /  2.  4.100
  libpostproc    54.  2.100 / 54.  2.100
Input #0, yuv4mpegpipe, from 'Input/y4m/old_town_cross_2160p50.y4m':
  Duration: 00:00:10.00, start: 0.000000, bitrate: 4976642 kb/s
    Stream #0:0: Video: rawvideo (I420 / 0x30323449), yuv420p(progressive), 3840x2160, SAR 1:1 DAR 16:9, 50 fps, 50 tbr, 50 tbn, 50 tbc
[h264_nvenc @ 0x26b1120] The variable bitrate rate-control requires the 'qmin' and/or 'qmax' option set.
Output #0, matroska, to 'Output/NVENCh264/encoded/old_town_cross_2160p50ll1500k.mkv':
  Metadata:
    encoder         : Lavf57.57.100
    Stream #0:0: Video: h264 (h264_nvenc) (Main) (H264 / 0x34363248), yuv420p, 3840x2160 [SAR 1:1 DAR 16:9], q=-1--1, 1500 kb/s, 50 fps, 1k tbn, 50 tbc
    Metadata:
      encoder         : Lavc57.66.101 h264_nvenc
    Side data:
      cpb: bitrate max/min/avg: 0/0/1500000 buffer size: 3000000 vbv_delay: -1
Stream mapping:
  Stream #0:0 -> #0:0 (rawvideo (native) -> h264 (h264_nvenc))
Press [q] to stop, [?] for help
frame=   20 fps=0.0 q=0.0 size=       0kB time=00:00:00.00 bitrate=N/A speed=   0x    frame=   38 fps= 36 q=47.0 size=       1kB time=00:00:00.14 bitrate=  42.3kbits/s speed=0.135x    frame=   45 fps= 29 q=48.0 size=       1kB time=00:00:00.28 bitrate=  21.2kbits/s speed=0.179x    frame=   61 fps= 26 q=49.0 size=       1kB time=00:00:00.60 bitrate=   9.9kbits/s speed=0.255x    frame=   79 fps= 27 q=49.0 size=       1kB time=00:00:00.96 bitrate=   6.2kbits/s speed=0.334x    frame=   96 fps= 26 q=49.0 size=       1kB time=00:00:01.30 bitrate=   4.6kbits/s speed=0.351x    frame=  114 fps= 27 q=49.0 size=       1kB time=00:00:01.66 bitrate=   3.6kbits/s speed=0.393x    frame=  125 fps= 26 q=49.0 size=       1kB time=00:00:01.88 bitrate=   3.2kbits/s speed=0.385x    frame=  143 fps= 26 q=49.0 size=       1kB time=00:00:02.24 bitrate=   2.7kbits/s speed=0.414x    frame=  161 fps= 27 q=49.0 size=       1kB time=00:00:02.60 bitrate=   2.3kbits/s speed=0.439x    frame=  179 fps= 28 q=49.0 size=       1kB time=00:00:02.96 bitrate=   2.0kbits/s speed=0.46x    frame=  197 fps= 28 q=49.0 size=       1kB time=00:00:03.32 bitrate=   1.8kbits/s speed=0.478x    frame=  215 fps= 29 q=49.0 size=       1kB time=00:00:03.68 bitrate=   1.6kbits/s speed=0.494x    frame=  221 fps= 27 q=49.0 size=       1kB time=00:00:03.80 bitrate=   1.6kbits/s speed=0.457x    frame=  227 fps= 26 q=49.0 size=       1kB time=00:00:03.92 bitrate=   1.5kbits/s speed=0.444x    frame=  245 fps= 26 q=49.0 size=       1kB time=00:00:04.28 bitrate=   1.4kbits/s speed=0.458x    frame=  251 fps= 25 q=49.0 size=       1kB time=00:00:04.40 bitrate=   1.4kbits/s speed=0.446x    frame=  254 fps= 24 q=49.0 size=       1kB time=00:00:04.46 bitrate=   1.3kbits/s speed=0.419x    frame=  257 fps= 22 q=49.0 size=       1kB time=00:00:04.52 bitrate=   1.3kbits/s speed=0.396x    frame=  263 fps= 22 q=49.0 size=       1kB time=00:00:04.64 bitrate=   1.3kbits/s speed=0.389x    frame=  268 fps= 22 q=49.0 size=       1kB time=00:00:04.74 bitrate=   1.3kbits/s speed=0.381x    frame=  270 fps= 21 q=49.0 size=       1kB time=00:00:04.78 bitrate=   1.2kbits/s speed=0.367x    frame=  272 fps= 20 q=49.0 size=       1kB time=00:00:04.82 bitrate=   1.2kbits/s speed=0.35x    frame=  274 fps= 19 q=49.0 size=       1kB time=00:00:04.86 bitrate=   1.2kbits/s speed=0.334x    frame=  276 fps= 18 q=49.0 size=       1kB time=00:00:04.90 bitrate=   1.2kbits/s speed=0.322x    frame=  278 fps= 17 q=49.0 size=       1kB time=00:00:04.94 bitrate=   1.2kbits/s speed=0.304x    frame=  280 fps= 17 q=49.0 size=       1kB time=00:00:04.98 bitrate=   1.2kbits/s speed=0.296x    frame=  281 fps= 16 q=47.0 size=    1171kB time=00:00:05.00 bitrate=1917.7kbits/s speed=0.284x    frame=  283 fps= 16 q=49.0 size=    1171kB time=00:00:05.04 bitrate=1902.5kbits/s speed=0.276x    frame=  285 fps= 15 q=49.0 size=    1171kB time=00:00:05.08 bitrate=1887.5kbits/s speed=0.267x    frame=  286 fps= 14 q=49.0 size=    1171kB time=00:00:05.10 bitrate=1880.1kbits/s speed=0.258x    frame=  289 fps= 14 q=49.0 size=    1171kB time=00:00:05.16 bitrate=1858.3kbits/s speed=0.25x    frame=  290 fps= 14 q=49.0 size=    1171kB time=00:00:05.18 bitrate=1851.1kbits/s speed=0.243x    frame=  291 fps= 13 q=49.0 size=    1171kB time=00:00:05.20 bitrate=1844.0kbits/s speed=0.238x    frame=  292 fps= 13 q=49.0 size=    1171kB time=00:00:05.22 bitrate=1836.9kbits/s speed=0.232x    frame=  295 fps= 12 q=49.0 size=    1171kB time=00:00:05.28 bitrate=1816.0kbits/s speed=0.223x    frame=  297 fps= 12 q=49.0 size=    1171kB time=00:00:05.32 bitrate=1802.4kbits/s speed=0.218x    frame=  299 fps= 12 q=49.0 size=    1171kB time=00:00:05.36 bitrate=1788.9kbits/s speed=0.215x    frame=  302 fps= 12 q=49.0 size=    1171kB time=00:00:05.42 bitrate=1769.1kbits/s speed=0.209x    frame=  306 fps= 11 q=49.0 size=    1171kB time=00:00:05.50 bitrate=1743.4kbits/s speed=0.205x    frame=  308 fps= 11 q=49.0 size=    1171kB time=00:00:05.54 bitrate=1730.8kbits/s speed=0.202x    frame=  310 fps= 11 q=49.0 size=    1171kB time=00:00:05.58 bitrate=1718.4kbits/s speed= 0.2x    frame=  316 fps= 11 q=49.0 size=    1171kB time=00:00:05.70 bitrate=1682.3kbits/s speed=0.198x    frame=  326 fps= 11 q=49.0 size=    1171kB time=00:00:05.90 bitrate=1625.2kbits/s speed= 0.2x    frame=  329 fps= 11 q=49.0 size=    1171kB time=00:00:05.96 bitrate=1608.9kbits/s speed=0.198x    frame=  333 fps= 11 q=49.0 size=    1171kB time=00:00:06.04 bitrate=1587.6kbits/s speed=0.197x    frame=  348 fps= 11 q=49.0 size=    1171kB time=00:00:06.34 bitrate=1512.5kbits/s speed=0.204x    frame=  366 fps= 12 q=49.0 size=    1171kB time=00:00:06.70 bitrate=1431.2kbits/s speed=0.212x    frame=  384 fps= 12 q=49.0 size=    1171kB time=00:00:07.06 bitrate=1358.2kbits/s speed=0.22x    frame=  396 fps= 12 q=49.0 size=    1171kB time=00:00:07.30 bitrate=1313.6kbits/s speed=0.223x    frame=  414 fps= 12 q=49.0 size=    1171kB time=00:00:07.66 bitrate=1251.9kbits/s speed=0.231x    frame=  432 fps= 13 q=49.0 size=    1171kB time=00:00:08.02 bitrate=1195.7kbits/s speed=0.238x    frame=  443 fps= 13 q=49.0 size=    1171kB time=00:00:08.24 bitrate=1163.8kbits/s speed=0.24x    frame=  460 fps= 13 q=49.0 size=    1171kB time=00:00:08.58 bitrate=1117.6kbits/s speed=0.246x    frame=  478 fps= 14 q=49.0 size=    1171kB time=00:00:08.94 bitrate=1072.6kbits/s speed=0.253x    frame=  496 fps= 14 q=49.0 size=    1171kB time=00:00:09.30 bitrate=1031.1kbits/s speed=0.259x    frame=  500 fps= 14 q=49.0 Lsize=    2594kB time=00:00:09.98 bitrate=2128.8kbits/s speed=0.277x    
video:2589kB audio:0kB subtitle:0kB other streams:0kB global headers:0kB muxing overhead: 0.163375%
bench: utime=1.344s
bench: maxrss=1396768kB
